<svg width="440" height="255" viewBox="0 0 440 255" fill="none" xmlns="http://www.w3.org/2000/svg">
<g id="no_results_illustration">
<path id="Vector" d="M381.979 213.708L399.848 224.076L404.753 217.931C405.791 216.604 405.701 215.816 404.947 215.277L383.39 199.794C382.634 199.292 381.743 199.029 380.835 199.04C379.927 199.051 379.043 199.336 378.299 199.856L362.643 209.001L378.153 214.842L381.979 213.708Z" fill="#82B5A1"/>
<path id="Vector_2" d="M399.855 224.062L403.259 226.364L409.146 220.869L404.76 217.917L399.855 224.062Z" fill="#DB8E8E"/>
<path id="Vector_3" d="M405.728 230.075L423.369 216.943C423.636 217.267 423.768 217.681 423.737 218.099C423.706 218.518 423.515 218.908 423.203 219.189L406.697 231.513L405.728 230.089" fill="white"/>
<path id="Vector_4" d="M422.103 216.57L407.575 219.784L405.846 218.629C405.366 219.104 405.05 219.719 404.943 220.385C404.836 221.051 404.944 221.733 405.251 222.334L405.465 222.77L403.293 226.371L405.763 230.089L423.404 216.957C423.247 216.774 423.041 216.64 422.811 216.572C422.58 216.503 422.334 216.502 422.103 216.57Z" fill="#2A3E40"/>
<path id="Vector_5" d="M236.805 254.772V95.6934H294.619C297.796 95.6921 300.891 96.6988 303.458 98.5684C306.026 100.438 307.933 103.074 308.904 106.096L347.23 226.889H415.718C418.54 226.889 421.304 227.684 423.694 229.183C426.084 230.682 428.003 232.824 429.229 235.363L440 254.772H236.805Z" fill="#69A0AE"/>
<path id="Vector_6" d="M387.23 245.959L388.779 249.947L396.963 246.892L394.217 239.911L387.23 245.959Z" fill="#DB8E8E"/>
<path id="Vector_7" d="M190.42 254.786H36.972C38.4525 254.786 82.1811 117.238 94.7649 78.4205C95.7426 75.4076 97.6503 72.7816 100.214 70.919C102.778 69.0564 105.867 68.0529 109.037 68.0526H190.42V254.786Z" fill="#82B5A1"/>
<path id="Vector_8" d="M245.452 254.772H69.3204C70.9531 254.772 149.749 191.327 169.631 175.865C172.627 173.569 176.301 172.331 180.077 172.347H245.438L245.452 254.772Z" fill="#2A3E40"/>
<path id="Vector_9" d="M361.972 170.135C361.896 167.294 361.28 164.778 358.762 163.023C358.108 162.564 357.334 162.306 356.535 162.283C356.535 162.283 348.032 169.492 347.707 169.886C347.382 170.28 347.437 170.743 347.43 171.358C347.43 171.642 347.825 172.015 347.832 172.285C347.864 173.046 347.671 173.8 347.276 174.452C346.881 175.104 346.302 175.624 345.611 175.948L341.723 185.514L353.484 187.588L361.225 176.266L361.329 175.672C361.765 175.713 361.931 175.713 361.931 175.713C362.111 175.709 362.284 175.646 362.424 175.531C362.563 175.417 362.66 175.26 362.698 175.084L361.972 170.135Z" fill="#DB8E8E"/>
<path id="Vector_10" d="M361.142 177.241L361.349 175.678L354.667 175.513L353.131 166.271C352.688 161.744 355.511 163.23 356.915 162.94C357.522 162.745 358.179 162.78 358.762 163.037L355.995 159.836C355.68 159.475 355.269 159.211 354.81 159.075C354.35 158.939 353.861 158.937 353.401 159.069C350.184 159.995 343.307 162.85 344.407 170.128L344.809 171.905L345.95 174.483L345.639 175.955C345.639 175.955 348.503 175.008 348.185 172.305C348.172 172.247 348.155 172.189 348.136 172.133C348.027 171.884 347.973 171.616 347.977 171.345C347.987 171.096 348.046 170.851 348.152 170.626C348.257 170.4 348.407 170.198 348.592 170.031C348.777 169.865 348.994 169.736 349.229 169.655C349.464 169.573 349.714 169.539 349.962 169.555C350.235 169.566 350.502 169.633 350.747 169.752C350.992 169.871 351.21 170.039 351.388 170.246C351.446 170.339 351.499 170.436 351.547 170.536C351.733 170.909 351.941 177.8 351.941 177.8C351.976 180.358 352.066 182.68 356.043 183.441C356.611 183.544 358.513 183.89 358.928 183.89C359.705 183.892 360.463 183.65 361.094 183.199C361.726 182.747 362.199 182.108 362.447 181.372C362.695 180.637 362.705 179.842 362.476 179.1C362.247 178.359 361.79 177.708 361.17 177.241H361.142Z" fill="#2A3E40"/>
<path id="Vector_11" d="M365.998 161.108L360.201 162.58L357.842 159.532C355.822 156.767 352.024 156.373 347.624 158.44C343.224 160.507 341.011 163.97 342.387 166.921L344.781 171.918L365.535 162.173C365.727 162.083 365.878 161.925 365.958 161.728C366.037 161.532 366.04 161.313 365.964 161.115L365.998 161.108Z" fill="#82B5A1"/>
<path id="Vector_12" d="M399.011 186.834L398.464 186.696C398.464 186.696 392.135 211.697 392.155 211.717H368.994C368.666 211.716 368.342 211.78 368.039 211.905C367.736 212.029 367.46 212.213 367.228 212.444C366.996 212.675 366.812 212.949 366.687 213.252C366.561 213.554 366.496 213.878 366.496 214.206L392.681 214.24C393.077 214.24 393.463 214.109 393.776 213.866C394.089 213.623 394.312 213.283 394.411 212.899L400.408 189.178C400.471 188.932 400.484 188.677 400.447 188.426C400.411 188.175 400.325 187.934 400.196 187.717C400.066 187.499 399.894 187.309 399.691 187.158C399.488 187.006 399.257 186.897 399.011 186.834Z" fill="white"/>
<path id="Vector_13" d="M370.274 208.303L361.225 208.241L354.542 189.938L354.881 189.198C355.29 188.313 355.361 187.308 355.08 186.374C354.8 185.44 354.188 184.64 353.359 184.125L344.926 178.872L340.277 175.803C340.089 175.678 339.861 175.625 339.637 175.653C339.412 175.68 339.205 175.788 339.053 175.955L334.003 181.485C333.148 182.425 332.502 183.536 332.109 184.744C331.715 185.952 331.583 187.23 331.72 188.493C331.859 189.742 332.26 190.948 332.895 192.032C333.53 193.117 334.386 194.056 335.407 194.79L336.161 195.329C335.992 197.339 336.134 199.362 336.583 201.329C338.001 207.598 339.731 214.683 341.024 218.222L343.681 226.357L352.737 220.136C359.959 217.558 371.906 214.268 371.906 214.268L370.274 208.303Z" fill="#2A3E40"/>
<path id="Vector_14" d="M388.496 211.703L382.415 208.407C382.082 208.225 381.708 208.132 381.329 208.137L370.26 208.303L371.865 214.302L381.702 211.703H388.496Z" fill="#DB8E8E"/>
<path id="Vector_15" d="M151.783 7.08923C151.43 5.70617 150.642 4.47289 149.535 3.57103C148.532 2.43061 147.294 1.52091 145.906 0.904593C144.518 0.288273 143.012 -0.0200162 141.493 0.00100731C139.974 0.0220309 138.478 0.371862 137.107 1.02637C135.737 1.68087 134.524 2.62449 133.554 3.79222C133.221 3.3297 132.774 2.96053 132.257 2.72014C131.74 2.47974 131.17 2.37619 130.601 2.41943C130.032 2.46266 129.484 2.65123 129.009 2.96704C128.534 3.28284 128.149 3.71528 127.89 4.22284C127.63 4.7304 127.506 5.29605 127.528 5.86548C127.551 6.43491 127.719 6.989 128.018 7.47459C128.316 7.96017 128.735 8.36093 129.233 8.6384C129.731 8.91588 130.292 9.06075 130.863 9.05911C130.983 9.05479 131.103 9.04325 131.223 9.02456C131.018 10.4438 131.105 11.8899 131.48 13.274C131.855 14.6581 132.51 15.9509 133.404 17.073C134.297 18.195 135.411 19.1225 136.677 19.7984C137.943 20.4743 139.333 20.8844 140.764 21.0034C142.194 21.1224 143.633 20.9478 144.994 20.4904C146.354 20.033 147.606 19.3023 148.673 18.3435C149.74 17.3846 150.6 16.2178 151.199 14.9147C151.798 13.6117 152.124 12.1999 152.156 10.7664C152.267 9.52806 152.14 8.28002 151.783 7.08923Z" fill="#2A3E40"/>
<path id="Vector_16" d="M169.673 50.4893L164.374 31.8685C164.108 30.2714 163.446 28.7664 162.448 27.4912C161.449 26.216 160.147 25.2114 158.659 24.5695L147.023 19.6689L135.699 24.5419C134.217 25.1943 132.923 26.2073 131.934 27.4884C130.946 28.7696 130.294 30.2779 130.04 31.8754L125.093 50.4893C124.667 52.0265 124.656 53.6489 125.061 55.1918C125.466 56.7347 126.271 58.1433 127.397 59.2744C128.118 59.9907 128.955 60.5797 129.874 61.0162V62.3433C129.84 64.7135 130.745 67.001 132.392 68.7073C134.039 70.4136 136.294 71.4006 138.666 71.4533H155.761C158.131 71.3988 160.385 70.411 162.03 68.7049C163.676 66.9988 164.58 64.7124 164.547 62.3433V61.1683C165.601 60.7243 166.559 60.0813 167.369 59.2744C168.495 58.1433 169.3 56.7347 169.705 55.1918C170.11 53.6489 170.099 52.0265 169.673 50.4893Z" fill="#2A3E40"/>
<path id="Vector_17" d="M157.407 48.5747C157.407 48.5747 158.466 48.1116 157.407 48.5747C156.503 48.9708 155.764 49.6687 155.317 50.549C154.87 51.4293 154.743 52.4373 154.958 53.4007C155.173 54.364 155.716 55.2228 156.495 55.8302C157.274 56.4377 158.239 56.756 159.227 56.7308C159.751 57.8116 160.672 58.6487 161.798 59.0672C162.925 59.4858 164.17 59.4535 165.273 58.9771C166.39 58.4657 167.265 57.5429 167.716 56.4016C168.167 55.2603 168.16 53.9889 167.694 52.8532C165.986 48.2222 157.407 48.5747 157.407 48.5747Z" fill="#DB8E8E"/>
<path id="Vector_18" d="M137.622 48.3881C137.622 48.3881 136.556 47.9319 137.622 48.3881C138.534 48.7784 139.281 49.475 139.734 50.3575C140.186 51.24 140.316 52.2527 140.1 53.2206C139.884 54.1884 139.336 55.0503 138.551 55.6572C137.767 56.2642 136.794 56.5779 135.802 56.5442C135.289 57.6661 134.35 58.5381 133.193 58.9685C132.035 59.3988 130.754 59.3523 129.631 58.839C128.509 58.3257 127.636 57.3877 127.205 56.2315C126.774 55.0752 126.821 53.7954 127.335 52.6735C129.064 48.7751 137.622 48.3881 137.622 48.3881Z" fill="#DB8E8E"/>
<path id="Vector_19" d="M148.545 97.1657H157.158L157.539 92.984L148.545 92.9632V97.1657Z" fill="#DB8E8E"/>
<path id="Vector_20" d="M141.046 23.4083V16.289L139.662 14.5748C139.356 14.2484 139.184 13.8194 139.178 13.3721C139.197 13.0174 139.307 12.6734 139.497 12.3733C139.687 12.0731 139.952 11.8268 140.264 11.658C140.506 11.5444 140.77 11.4846 141.037 11.4825C141.305 11.4803 141.569 11.536 141.813 11.6456C142.057 11.7553 142.274 11.9163 142.45 12.1177C142.625 12.319 142.756 12.556 142.831 12.8123C142.866 12.9298 143.613 15.7291 143.613 15.7291C144.346 15.4319 145.515 14.0771 145.245 13.3168C145.245 13.3168 143.709 7.43476 143.606 7.02005L148.621 2.67242C148.815 2.87978 153.146 6.33576 155.38 11.5059C155.451 11.5871 155.504 11.6829 155.534 11.7866C155.564 11.8903 155.571 11.9993 155.555 12.106C155.538 12.2128 155.499 12.3146 155.439 12.4044C155.379 12.4941 155.3 12.5696 155.207 12.6256L154.764 12.9505L155.034 14.9411C155.94 18.7012 154.557 19.5998 152.558 20.6228L152.461 20.685V22.3922C152.461 26.3044 150.883 28.5231 147.736 29.0553C146.69 29.2398 145.614 29.1329 144.626 28.7464C143.637 28.3598 142.775 27.7086 142.132 26.8642C141.404 25.8608 141.023 24.6476 141.046 23.4083Z" fill="#DB8E8E"/>
<path id="Vector_21" d="M160.721 58.0856H133.692C133.325 58.0856 132.973 57.9399 132.714 57.6807C132.455 57.4214 132.309 57.0698 132.309 56.7032L131.762 37.5985C131.762 37.2319 131.908 36.8803 132.167 36.621C132.427 36.3618 132.779 36.2162 133.146 36.2162H161.295C161.662 36.2162 162.014 36.3618 162.273 36.621C162.533 36.8803 162.679 37.2319 162.679 37.5985L162.132 56.7032C162.132 56.8871 162.096 57.0691 162.024 57.2386C161.953 57.4082 161.849 57.5618 161.717 57.6906C161.586 57.8193 161.43 57.9205 161.259 57.9884C161.088 58.0562 160.905 58.0892 160.721 58.0856Z" fill="white"/>
<path id="Vector_22" d="M148.552 93.0116H157.705C158.283 93.0112 158.856 92.894 159.388 92.6672C159.92 92.4403 160.4 92.1084 160.801 91.6915C161.201 91.2745 161.513 90.781 161.718 90.2406C161.924 89.7002 162.017 89.124 161.994 88.5465L160.61 61.1545C160.548 59.6001 159.885 58.1303 158.762 57.053C157.639 55.9758 156.142 55.3748 154.585 55.3761C152.987 55.3761 151.454 56.0104 150.324 57.1394C149.194 58.2684 148.559 59.7997 148.559 61.3964L148.552 93.0116Z" fill="#69A0AE"/>
<path id="Vector_23" d="M147.231 94.4285H138.618L138.238 90.2537L147.231 90.2261V94.4285Z" fill="#DB8E8E"/>
<path id="Vector_24" d="M147.224 90.2745H138.071C137.493 90.275 136.921 90.1587 136.389 89.9326C135.857 89.7065 135.376 89.3753 134.976 88.9589C134.575 88.5424 134.263 88.0494 134.058 87.5094C133.853 86.9693 133.759 86.3934 133.782 85.8163L135.166 61.1545C135.228 59.6001 135.891 58.1303 137.014 57.053C138.137 55.9758 139.634 55.3748 141.191 55.3761C142.79 55.3761 144.322 56.0104 145.452 57.1394C146.582 58.2684 147.217 59.7997 147.217 61.3964L147.224 90.2745Z" fill="#69A0AE"/>
<path id="Vector_25" d="M153.333 94.5391C152.845 94.5398 152.374 94.7078 151.996 95.0148C151.618 95.3219 151.357 95.7493 151.257 96.2256L151.084 97.055H148.545V106.504C148.545 108.225 150.406 109.621 152.696 109.621C154.875 109.621 156.681 108.356 156.847 106.725L157.144 99.6885L157.421 94.4285L153.333 94.5391Z" fill="#2A3E40"/>
<path id="Vector_26" d="M144.519 93.4955C144.419 93.0192 144.158 92.5917 143.78 92.2847C143.403 91.9776 142.931 91.8097 142.444 91.8089L138.369 91.7053L138.646 96.9653L138.936 104.009C139.095 105.64 140.901 106.898 143.087 106.898C145.377 106.898 147.238 105.515 147.238 103.78V94.3318H144.692L144.519 93.4955Z" fill="#2A3E40"/>
<path id="Vector_27" d="M278.624 246.775V242.033H271.63L271.845 245.434L278.624 246.775Z" fill="#DB8E8E"/>
<path id="Vector_28" d="M291.166 135.499L284.878 126.721L285.127 118.662C285.355 113.754 284.719 108.653 279.745 106.082C276.459 104.382 273.283 104.008 270.703 104.942L270.413 105.052C269.493 105.439 268.659 106.003 267.957 106.711L267.908 106.766C268.172 109.794 268.992 112.746 270.329 115.475C270.329 115.475 273.996 117.618 274.217 117.729C274.712 117.954 275.098 118.364 275.294 118.87C275.489 119.377 275.478 119.94 275.262 120.438C274.983 120.801 274.604 121.076 274.172 121.229C273.74 121.382 273.273 121.408 272.827 121.302C272.633 121.91 271.685 122.118 271.506 122.761C271.502 122.816 271.502 122.871 271.506 122.926L269.617 123.168C269.617 123.168 270.516 150.851 276.424 153.899C277.829 154.624 279.362 155.066 280.938 155.199C282.513 155.333 284.1 155.154 285.606 154.675C287.113 154.195 288.51 153.424 289.718 152.405C290.926 151.386 291.921 150.139 292.647 148.736C294.909 144.298 294.155 139.398 291.166 135.499Z" fill="#2A3E40"/>
<path id="Vector_29" d="M262.388 113.817L263.391 113.208C264.65 112.517 266.331 108.944 266.331 108.944C266.442 108.75 266.552 108.557 266.663 108.377C266.843 108.08 267.03 107.803 267.216 107.547C267.425 107.268 267.656 107.007 267.908 106.766L274.252 117.66C275.317 118.213 275.871 119.042 275.304 120.369C275.169 120.631 274.973 120.857 274.732 121.027C274.491 121.197 274.212 121.305 273.92 121.344L273.726 129.313L264.684 131.235V122.996C258.887 120.348 262.457 115.261 262.457 115.261C262.256 115.014 262.073 114.753 261.91 114.48C261.82 114.155 262.097 113.989 262.388 113.817Z" fill="#DB8E8E"/>
<path id="Vector_30" d="M274.21 161.723L262.083 164.025L266.449 202.766H279.946L281.578 177.241C281.741 175.186 281.575 173.119 281.087 171.117C279.828 166.078 277.586 163.513 275.006 162.034" fill="#82B5A1"/>
<path id="Vector_31" d="M273.719 130.633V127.945L264.456 129.673C264.273 129.673 264.097 129.745 263.967 129.875C263.837 130.005 263.764 130.18 263.764 130.364V133.999L259.531 140.994C259.255 141.482 259.063 142.012 258.963 142.563C258.472 144.962 259.261 146.289 260.914 148.093L261.309 148.521L261.917 159.111L255.94 161.329L256.335 167.55L270.496 164.785C272.356 164.44 274.079 163.571 275.461 162.28C276.844 160.99 277.829 159.331 278.299 157.5C278.348 157.3 278.396 157.092 278.431 156.892L280.354 138.603C280.838 134.469 277.946 131.767 273.719 130.633Z" fill="white"/>
<path id="Vector_32" d="M236.514 172.16L239.973 167.84C240.924 166.645 242.207 165.758 243.661 165.29L255.94 161.315L256.334 167.536L240.375 170.799L236.514 172.16Z" fill="#DB8E8E"/>
<path id="Vector_33" d="M266.421 202.766L271.63 242.033H278.624L279.634 202.891L266.421 202.766Z" fill="#2A3E40"/>
<path id="Vector_34" d="M274.397 121.385C275.486 121.385 276.369 120.503 276.369 119.415C276.369 118.327 275.486 117.445 274.397 117.445C273.309 117.445 272.426 118.327 272.426 119.415C272.426 120.503 273.309 121.385 274.397 121.385Z" fill="#DB8E8E"/>
<path id="Vector_35" d="M259.876 253.389V253.576C259.869 253.881 259.981 254.176 260.19 254.398C260.398 254.621 260.686 254.752 260.99 254.765H279.15V253.251" fill="white"/>
<path id="Vector_36" d="M278.624 245.434H271.845C271.962 245.434 269.769 248.358 269.769 248.358C269.769 248.358 262.914 251.468 261.336 251.862C260.974 251.951 260.645 252.142 260.389 252.413C260.132 252.684 259.959 253.023 259.89 253.389L279.157 253.258L278.624 245.434Z" fill="#E8E6E5"/>
<path id="Vector_37" d="M219.579 145.494L220.126 145.356C220.126 145.356 226.4 170.149 226.352 170.17H249.326C249.982 170.17 250.611 170.429 251.075 170.892C251.54 171.355 251.801 171.982 251.803 172.637L225.833 172.672C225.44 172.672 225.059 172.542 224.748 172.301C224.437 172.061 224.216 171.725 224.117 171.345L218.175 147.844C218.109 147.598 218.093 147.34 218.128 147.087C218.163 146.835 218.249 146.592 218.38 146.372C218.511 146.153 218.684 145.963 218.89 145.812C219.096 145.661 219.331 145.553 219.579 145.494Z" fill="#2A3E40"/>
<path id="Vector_38" d="M395.434 237.298L389.789 219.507C388.503 214.807 385.113 214.213 382.055 214.157L361.377 213.936C361.377 213.936 343.48 222.23 342.629 222.846L343.688 226.364C343.688 226.481 343.688 226.765 343.688 226.882H380.132L387.23 245.973L393.919 242.337C394.651 241.748 395.187 240.951 395.457 240.052C395.727 239.153 395.719 238.193 395.434 237.298Z" fill="#82B5A1"/>
<path id="Vector_39" d="M347.728 226.938L329.9 173.308L307.957 171.386L314.114 220.185C314.114 220.185 332.571 239.013 336.03 240.167C339.489 241.321 349.866 235.944 349.866 235.944L347.728 226.938Z" fill="#69A0AE"/>
<path id="Vector_40" d="M49.4659 254.779H32.1017C29.9367 254.779 27.857 253.935 26.3062 252.426C24.7554 250.916 23.8561 248.861 23.8002 246.699L22.1744 191.486H59.414L57.7882 246.699C57.7322 248.865 56.8301 250.923 55.2748 252.433C53.7195 253.943 51.6345 254.785 49.4659 254.779Z" fill="#2A3E40"/>
<path id="Vector_41" d="M389.277 253.3H411.865C411.899 253.712 411.77 254.122 411.505 254.44C411.239 254.759 410.859 254.96 410.446 255H389.43L389.277 253.3Z" fill="white"/>
<path id="Vector_42" d="M411.09 252.249L398.236 246.865L397.351 244.1C395.967 244.3 395.808 245.261 395.545 246.637L388.779 249.954L389.277 253.307H411.865C411.845 253.076 411.763 252.856 411.626 252.669C411.489 252.482 411.304 252.337 411.09 252.249Z" fill="#2A3E40"/>
<path id="Vector_43" d="M53.6651 106.469C53.666 103.054 52.6659 99.7131 50.7883 96.8592C48.9107 94.0053 46.2378 91.7631 43.0995 90.4095C39.9612 89.0559 36.4949 88.65 33.1284 89.2421C29.7619 89.8341 26.6426 91.3982 24.1555 93.7411C21.6685 96.084 19.9225 99.1033 19.1331 102.426C18.3437 105.749 18.5455 109.23 19.7136 112.44C20.8816 115.65 22.9648 118.447 25.706 120.488C28.4471 122.528 31.7263 123.722 35.1387 123.922V191.099H37.2141V123.922C41.666 123.656 45.8482 121.701 48.9059 118.457C51.9636 115.213 53.666 110.925 53.6651 106.469Z" fill="#71969E"/>
<path id="Vector_44" d="M81.7729 121.074C75.4153 114.224 66.1797 112.448 61.1504 117.107C56.121 121.765 57.2002 131.103 63.5578 137.953C63.7239 138.133 63.8968 138.306 64.0628 138.478L57.9266 146.932C54.7696 151.301 53.0747 156.555 53.084 161.944V167.412C48.9177 168.63 45.3674 171.379 43.1466 175.106C40.9258 178.833 40.199 183.261 41.1123 187.502C42.0256 191.742 44.5113 195.48 48.07 197.964C51.6286 200.448 55.9963 201.494 60.2955 200.893C64.5947 200.291 68.5066 198.086 71.2453 194.721C73.9839 191.355 75.3462 187.079 75.0585 182.751C74.7707 178.424 72.8542 174.365 69.6941 171.391C66.534 168.417 62.3645 166.749 58.0234 166.721C57.0048 166.721 55.9884 166.814 54.9864 166.997V162.801C54.9772 157.412 56.672 152.158 59.829 147.789L65.5571 139.895C71.7349 145.128 79.6629 146.116 84.1873 141.969C89.2166 137.262 88.1374 127.931 81.7729 121.074Z" fill="#71969E"/>
<path id="Vector_45" d="M27.2868 177.247V167.011C27.2811 163.952 26.2346 160.985 24.319 158.599L17.8299 150.45C23.9731 144.036 27.0516 137.158 24.7479 134.822C22.4442 132.486 14.9935 135.79 8.37995 142.425C1.76635 149.061 -1.63038 156.36 0.770162 158.786C3.1707 161.212 10.0126 158.039 16.4325 151.874L22.6033 159.574C24.5135 161.962 25.555 164.928 25.5573 167.985V176.162C22.8489 174.803 19.7196 174.54 16.8223 175.43C13.9249 176.319 11.4832 178.292 10.0065 180.937C8.52975 183.582 8.13208 186.694 8.89641 189.625C9.66074 192.555 11.528 195.078 14.1088 196.666C16.6895 198.255 19.7844 198.786 22.7479 198.15C25.7113 197.513 28.3144 195.758 30.0142 193.251C31.714 190.744 32.3792 187.677 31.8711 184.692C31.3629 181.706 29.7206 179.032 27.2868 177.227V177.247Z" fill="#71969E"/>
</g>
</svg>
